<?xml version="1.0" encoding="utf-8"?>
<svg version="1.1" xmlns="http://www.w3.org/2000/svg">
  <title>Wolfenstein logo</title>
  <path d="M 37.231 15.2 L 37.231 57.422 L 33.846 59.111 L 33.846 15.2 L 23.692 15.2 L 23.692 57.422 L 20.308 59.111 L 20.308 15.2 L 0 15.2 L 10.154 21.956 L 10.154 76 L 23.692 67.555 L 23.692 76 L 47.385 60.8 L 47.385 15.2 L 37.231 15.2" style="fill: rgb(255, 255, 255);"/>
  <path d="M 88 8.445 L 77.846 15.2 L 77.846 76 L 88 69.245 L 88 8.445" style="fill: rgb(255, 255, 255);"/>
  <path d="M 101.538 6.755 L 111.692 0 L 101.538 0 L 91.385 6.755 L 91.385 67.555 L 101.538 60.8 L 101.538 21.956 L 111.692 15.2 L 101.538 15.2 L 101.538 6.755" style="fill: rgb(255, 255, 255);"/>
  <path d="M 118.462 47.289 L 128.615 40.533 L 128.615 15.2 L 118.462 15.2 L 104.923 23.644 L 104.923 60.8 L 128.615 60.8 L 128.615 50.666 L 115.077 50.666 L 115.077 28.711 L 118.462 26.6 L 118.462 47.289" style="fill: rgb(255, 255, 255);"/>
  <path d="M 132 15.2 L 132 60.8 L 142.154 60.8 L 142.154 25.334 L 145.538 25.334 L 145.538 60.8 L 155.692 60.8 L 155.692 15.2 L 132 15.2" style="fill: rgb(255, 255, 255);"/>
  <path d="M 159.077 50.666 L 159.077 60.8 L 182.769 60.8 L 182.769 40.533 L 169.231 32.089 L 169.231 25.334 L 172.615 25.334 L 172.615 32.089 L 182.769 25.334 L 182.769 15.2 L 159.077 15.2 L 159.077 35.466 L 172.615 43.911 L 172.615 50.666 L 169.231 50.666 L 169.231 43.911 L 159.077 50.666" style="fill: rgb(255, 255, 255);"/>
  <path d="M 186.154 15.2 L 186.154 67.555 L 196.308 60.8 L 196.308 21.956 L 206.462 15.2 L 196.308 15.2 L 196.308 8.445 L 186.154 15.2" style="fill: rgb(255, 255, 255);"/>
  <path d="M 213.231 47.289 L 223.385 40.533 L 223.385 15.2 L 213.231 15.2 L 199.692 23.644 L 199.692 60.8 L 223.385 60.8 L 223.385 50.666 L 209.846 50.666 L 209.846 28.711 L 213.231 26.6 L 213.231 47.289" style="fill: rgb(255, 255, 255);"/>
  <path d="M 236.923 18.577 L 226.769 25.334 L 226.769 60.8 L 236.923 60.8 L 236.923 18.577" style="fill: rgb(255, 255, 255);"/>
  <path d="M 236.923 8.445 L 226.769 15.2 L 226.769 21.956 L 236.923 15.2 L 236.923 8.445" style="fill: rgb(255, 255, 255);"/>
  <path d="M 240.308 15.2 L 240.308 60.8 L 250.462 60.8 L 250.462 25.334 L 253.846 25.334 L 253.846 60.8 L 264 60.8 L 264 15.2 L 240.308 15.2" style="fill: rgb(255, 255, 255);"/>
  <path d="M 50.769 15.2 L 50.769 60.8 L 74.462 60.8 L 74.462 15.2 Z M 64.308 50.666 L 60.923 50.666 L 60.923 25.334 L 64.308 25.334 Z" style="fill: rgb(255, 255, 255);"/>
</svg>